<?xml-stylesheet type="text/css" href="../styles.css"?>
<svg width="12px" height="12px" viewBox="13 8 12 12" version="1.1" xmlns="http://www.w3.org/2000/svg" xmlns:xlink="http://www.w3.org/1999/xlink">
    <!-- Generator: Sketch 40.3 (33839) - http://www.bohemiancoding.com/sketch -->
    <desc>Created with Sketch.</desc>
    <defs></defs>
    <path d="M20.125,12.875 L20.125,9.12893087 C20.125,8.50034732 19.6213203,8 19,8 C18.3743479,8 17.875,8.50543957 17.875,9.12893087 L17.875,12.875 L14.1289309,12.875 C13.5003473,12.875 13,13.3786797 13,14 C13,14.6256521 13.5054396,15.125 14.1289309,15.125 L17.875,15.125 L17.875,18.8710691 C17.875,19.4996527 18.3786797,20 19,20 C19.6256521,20 20.125,19.4945604 20.125,18.8710691 L20.125,15.125 L23.8710691,15.125 C24.4996527,15.125 25,14.6213203 25,14 C25,13.3743479 24.4945604,12.875 23.8710691,12.875 L20.125,12.875 Z" id="add-icon" stroke="none" fill="#343D46" fill-rule="evenodd"></path>
</svg>