<?xml-stylesheet type="text/css" href="../styles.css"?>
<svg width="12px" height="14px" viewBox="9 7 12 14" version="1.1" xmlns="http://www.w3.org/2000/svg" xmlns:xlink="http://www.w3.org/1999/xlink">
    <!-- Generator: Sketch 40.3 (33839) - http://www.bohemiancoding.com/sketch -->
    <desc>Created with Sketch.</desc>
    <defs></defs>
    <path d="M14.5,14.3509241 L14.5,17.0313934 C14.5,17.638663 14.0117487,18.1309524 13.4,18.1309524 C12.7924868,18.1309524 12.3,17.6413877 12.3,17.0318563 L12.3,17.568391 C12.3,16.961377 12.7934692,16.38291 13.392128,16.2781111 L13.2777778,16.2981288 C13.8177895,16.2035964 14.2555556,15.675898 14.2555556,15.1348902 L14.2555556,12.5654762 L14.3491218,12.5654762 C14.5045657,12.1854178 14.8448367,11.8719655 15.2395944,11.7846997 L16.4894493,11.5084048 C16.7618869,11.4481793 16.975,11.6284253 16.975,11.9088845 L16.975,12.6820618 C16.975,12.9705349 16.7504908,13.2291831 16.4735447,13.2776682 L15.2810714,13.4864353 C14.8653119,13.5592226 14.5345175,13.9370297 14.5,14.3509241 Z M9,9.22619048 L20,9.22619048 L20,20.3571429 L9,20.3571429 L9,9.22619048 Z M9.55,8.11309524 L19.45,8.11309524 L19.45,8.66964286 L9.55,8.66964286 L9.55,8.11309524 Z M10.1,7 L18.9,7 L18.9,7.55654762 L10.1,7.55654762 L10.1,7 Z" id="library-icon" stroke="none" fill="#4F5B66" fill-rule="evenodd"></path>
</svg>