<?xml-stylesheet type="text/css" href="styles.css"?>
<svg width="18px" height="21px" viewBox="45 582 18 21" version="1.1" xmlns="http://www.w3.org/2000/svg" xmlns:xlink="http://www.w3.org/1999/xlink">
    <!-- Generator: Sketch 40.3 (33839) - http://www.bohemiancoding.com/sketch -->
    <desc>Created with Sketch.</desc>
    <defs></defs>
    <path d="M45,582.996115 C45,582.445976 45.4378814,582 46.0029293,582 L50.9970707,582 C51.5509732,582 52,582.457285 52,582.996115 L52,601.090841 C52,601.640981 51.5621186,602.086957 50.9970707,602.086957 L46.0029293,602.086957 C45.4490268,602.086957 45,601.629671 45,601.090841 L45,582.996115 Z M56,582.996115 C56,582.445976 56.4378814,582 57.0029293,582 L61.9970707,582 C62.5509732,582 63,582.457285 63,582.996115 L63,601.090841 C63,601.640981 62.5621186,602.086957 61.9970707,602.086957 L57.0029293,602.086957 C56.4490268,602.086957 56,601.629671 56,601.090841 L56,582.996115 Z" id="pause-icon" stroke="none" fill-opacity="0.7" fill="#000000" fill-rule="evenodd"></path>
</svg>