<?xml-stylesheet type="text/css" href="styles.css"?>
<svg width="10px" height="14px" viewBox="9 7 10 14" version="1.1" xmlns="http://www.w3.org/2000/svg" xmlns:xlink="http://www.w3.org/1999/xlink">
    <!-- Generator: Sketch 40.3 (33839) - http://www.bohemiancoding.com/sketch -->
    <desc>Created with Sketch.</desc>
    <defs></defs>
    <g stroke="none" stroke-width="1" fill="none" fill-rule="evenodd" transform="translate(9.000000, 7.000000)">
        <g id="Layer_x0020_1" fill="#4F5B66">
            <path class="question" d="M6.26210526,10.1485481 L3.95047368,10.1485481 C3.94426316,9.81928889 3.94115789,9.62111111 3.94115789,9.54794815 C3.94115789,8.81014815 4.06494737,8.20348148 4.31252632,7.72784444 C4.56010526,7.2492 5.05831579,6.7156963 5.801,6.11815556 C6.54368421,5.52367407 6.98931579,5.13343704 7.13163158,4.94744444 C7.35752632,4.65785185 7.46894737,4.33465926 7.46894737,3.98408889 C7.46894737,3.49626667 7.27089474,3.0786 6.87478947,2.72802963 C6.47868421,2.38046667 5.94642105,2.20671111 5.27494737,2.20671111 C4.62815789,2.20671111 4.08663158,2.38959259 3.65031579,2.7524 C3.21705263,3.11520741 2.91689474,3.67007407 2.75289474,4.41394074 L0.416526316,4.12735556 C0.481473684,3.06034815 0.942578947,2.15485926 1.79668421,1.41099259 C2.65384211,0.667125926 3.77405263,0.295140741 5.16663158,0.295140741 C6.62726316,0.295140741 7.79078947,0.673192593 8.65726316,1.42623704 C9.52063158,2.17922963 9.95384211,3.05422963 9.95384211,4.05725185 C9.95384211,4.60905926 9.79294737,5.13343704 9.47731579,5.62732593 C9.15857895,6.12121481 8.48084211,6.79497778 7.44110526,7.64555556 C6.90263158,8.08759259 6.56842105,8.44127407 6.43847368,8.70955556 C6.30852632,8.97783704 6.24968421,9.45648148 6.26210526,10.1485481 L6.26210526,10.1485481 Z M3.95047368,13.5234296 L3.95047368,11.0143704 L6.49726316,11.0143704 L6.49726316,13.5234296 L3.95047368,13.5234296 L3.95047368,13.5234296 Z" id="Shape"></path>
        </g>
    </g>
</svg>